<svg id="graph1" xmlns="http://www.w3.org/2000/svg" viewBox="0 0 720 580"><defs><style>.cls-1,.cls-2,.cls-3,.cls-4,.cls-7{fill:none;stroke-miterlimit:10;}.cls-1,.cls-2{stroke:#000;}.cls-2{stroke-width:2px;}.cls-3{stroke:#d1d1d1;}.cls-4{stroke:#f1f1f1;}.cls-5{font-size:21px;font-family:Meiryo, Meiryo;}.cls-6{letter-spacing:0.25em;}.cls-7{stroke:#36c;stroke-width:5px;}</style></defs><title>graph1</title><line class="cls-1" x1="78" y1="57.5" x2="678" y2="57.5"/><line class="cls-1" x1="78" y1="136.5" x2="678" y2="136.5"/><line class="cls-1" x1="78" y1="217.5" x2="678" y2="217.5"/><line class="cls-1" x1="78" y1="297.5" x2="678" y2="297.5"/><line class="cls-1" x1="78" y1="377.5" x2="678" y2="377.5"/><line class="cls-2" x1="78" y1="457.5" x2="678" y2="457.5"/><line class="cls-3" x1="529.25" y1="57" x2="529.25" y2="457"/><line class="cls-3" x1="630" y1="57" x2="630" y2="457"/><line class="cls-3" x1="428" y1="57" x2="428" y2="457"/><line class="cls-3" x1="328" y1="57" x2="328" y2="457"/><line class="cls-3" x1="228" y1="57" x2="228" y2="457"/><line class="cls-4" x1="479.25" y1="57" x2="479.25" y2="457"/><line class="cls-4" x1="580" y1="57" x2="580" y2="457"/><line class="cls-4" x1="378" y1="57" x2="378" y2="457"/><line class="cls-4" x1="278" y1="57" x2="278" y2="457"/><line class="cls-4" x1="178" y1="57" x2="178" y2="457"/><line class="cls-3" x1="128" y1="57" x2="128" y2="457"/><text class="cls-5" transform="translate(62.96 464)">0</text><text class="cls-5" transform="translate(49.91 383.6)">70</text><text class="cls-5" transform="translate(36.87 303.2)">140</text><text class="cls-5" transform="translate(36.87 222.8)">210</text><text class="cls-5" transform="translate(36.87 142.4)">280</text><text class="cls-5" transform="translate(36.87 62)">350</text><text class="cls-5" transform="translate(98.79 480)">200<tspan class="cls-6" x="39.13" y="0">7</tspan><tspan x="57.42" y="0">年</tspan></text><text class="cls-5" transform="translate(197.79 480)">200<tspan class="cls-6" x="39.13" y="0">9</tspan><tspan x="57.42" y="0">年</tspan></text><text class="cls-5" transform="translate(296.79 480)">201<tspan class="cls-6" x="39.13" y="0">1</tspan><tspan x="57.42" y="0">年</tspan></text><text class="cls-5" transform="translate(395.79 480)">201<tspan class="cls-6" x="39.13" y="0">3</tspan><tspan x="57.42" y="0">年</tspan></text><text class="cls-5" transform="translate(494.79 480)">201<tspan class="cls-6" x="39.13" y="0">5</tspan><tspan x="57.42" y="0">年</tspan></text><text class="cls-5" transform="translate(593.79 480)">201<tspan class="cls-6" x="39.13" y="0">7</tspan><tspan x="57.42" y="0">年</tspan></text><text class="cls-5" transform="translate(148.79 505)">200<tspan class="cls-6" x="39.13" y="0">8</tspan><tspan x="57.42" y="0">年</tspan></text><text class="cls-5" transform="translate(247.79 505)">201<tspan class="cls-6" x="39.13" y="0">0</tspan><tspan x="57.42" y="0">年</tspan></text><text class="cls-5" transform="translate(346.79 505)">201<tspan class="cls-6" x="39.13" y="0">2</tspan><tspan x="57.42" y="0">年</tspan></text><text class="cls-5" transform="translate(445.79 505)">201<tspan class="cls-6" x="39.13" y="0">4</tspan><tspan x="57.42" y="0">年</tspan></text><text class="cls-5" transform="translate(544.79 505)">201<tspan class="cls-6" x="39.13" y="0">6</tspan><tspan x="57.42" y="0">年</tspan></text><polyline class="cls-7" points="128 127.98 178 112 228 250 278 292 328 303.2 378 297.5 428 231 479.25 297.5 529.25 188 580 277.96"/><text class="cls-5" transform="translate(23.52 40)"><tspan class="cls-6">(</tspan><tspan x="14.48" y="0">万</tspan><tspan class="cls-6" x="35.48" y="0">円</tspan><tspan x="61.73" y="0">)</tspan></text></svg>