<svg xmlns="http://www.w3.org/2000/svg" viewBox="0 0 720 580"><defs><style>.cls-1,.cls-2,.cls-6{fill:none;stroke-miterlimit:10;}.cls-1,.cls-2{stroke:#000;}.cls-2{stroke-width:2px;}.cls-3,.cls-4{font-size:21px;font-family:Meiryo, Meiryo;}.cls-3{letter-spacing:-0.1em;}.cls-5{letter-spacing:0.25em;}.cls-6{stroke:#36c;stroke-width:29px;}</style></defs><title>graph1</title><g id="glaph3"><line class="cls-1" x1="78" y1="57.5" x2="678" y2="57.5"/><line class="cls-1" x1="78" y1="136.5" x2="678" y2="136.5"/><line class="cls-1" x1="78" y1="217.5" x2="678" y2="217.5"/><line class="cls-1" x1="78" y1="297.5" x2="678" y2="297.5"/><line class="cls-1" x1="78" y1="377.5" x2="678" y2="377.5"/><line class="cls-2" x1="78" y1="457.5" x2="678" y2="457.5"/><text class="cls-3" transform="translate(62.96 464)">0</text><text class="cls-3" transform="translate(13.95 383.6)">30,000</text><text class="cls-3" transform="translate(13.95 303.2)">60,000</text><text class="cls-3" transform="translate(13.95 222.8)">90,000</text><text class="cls-3" transform="translate(3.01 142.4)">120,000</text><text class="cls-3" transform="translate(3.01 62)">150,000</text><text class="cls-4" transform="translate(72.61 524.19) rotate(-37.01)"><tspan class="cls-5">5</tspan><tspan x="18.29" y="0">分未満</tspan></text><text class="cls-4" transform="translate(154.73 571.49) rotate(-37.01)"><tspan class="cls-5">7</tspan><tspan x="18.29" y="0">分</tspan><tspan class="cls-5" x="39.29" y="0">～</tspan><tspan x="65.54" y="0">1</tspan><tspan class="cls-5" x="78.59" y="0">0</tspan><tspan x="96.88" y="0">分未満</tspan></text><text class="cls-4" transform="translate(289.18 579.34) rotate(-37.01)">1<tspan class="cls-5" x="13.04" y="0">5</tspan><tspan x="31.34" y="0">分</tspan><tspan class="cls-5" x="52.34" y="0">～</tspan><tspan x="78.59" y="0">2</tspan><tspan class="cls-5" x="91.63" y="0">0</tspan><tspan x="109.92" y="0">分未満</tspan></text><text class="cls-4" transform="translate(434.05 579.34) rotate(-37.01)">3<tspan class="cls-5" x="13.04" y="0">0</tspan><tspan x="31.34" y="0">分</tspan><tspan class="cls-5" x="52.34" y="0">～</tspan><tspan x="78.59" y="0">6</tspan><tspan class="cls-5" x="91.63" y="0">0</tspan><tspan x="109.92" y="0">分未満</tspan></text><text class="cls-4" transform="translate(92.71 563.64) rotate(-37.01)"><tspan class="cls-5">5</tspan><tspan x="18.29" y="0">分</tspan><tspan class="cls-5" x="39.29" y="0">～7</tspan><tspan x="83.84" y="0">分未満</tspan></text><text class="cls-4" transform="translate(216.75 579.34) rotate(-37.01)">1<tspan class="cls-5" x="13.04" y="0">0</tspan><tspan x="31.34" y="0">分</tspan><tspan class="cls-5" x="52.34" y="0">～</tspan><tspan x="78.59" y="0">1</tspan><tspan class="cls-5" x="91.63" y="0">5</tspan><tspan x="109.92" y="0">分未満</tspan></text><text class="cls-4" transform="translate(361.61 579.34) rotate(-37.01)">2<tspan class="cls-5" x="13.04" y="0">0</tspan><tspan x="31.34" y="0">分</tspan><tspan class="cls-5" x="52.34" y="0">～</tspan><tspan x="78.59" y="0">3</tspan><tspan class="cls-5" x="91.63" y="0">0</tspan><tspan x="109.92" y="0">分未満</tspan></text><text class="cls-4" transform="translate(569.24 532.04) rotate(-37.01)">6<tspan class="cls-5" x="13.04" y="0">0</tspan><tspan x="31.34" y="0">分以上</tspan></text><text class="cls-4" transform="translate(6.52 38)"><tspan class="cls-5">(</tspan><tspan x="14.48" y="0">万</tspan><tspan class="cls-5" x="35.48" y="0">円</tspan><tspan x="61.73" y="0">)</tspan></text><line class="cls-6" x1="128" y1="320" x2="128" y2="457"/><line class="cls-6" x1="200.5" y1="338" x2="200.5" y2="457"/><line class="cls-6" x1="273" y1="328" x2="273" y2="457"/><line class="cls-6" x1="345.5" y1="184" x2="345.5" y2="457"/><line class="cls-6" x1="418" y1="320" x2="418" y2="457"/><line class="cls-6" x1="490.5" y1="355" x2="490.5" y2="457"/><line class="cls-6" x1="563" y1="434" x2="563" y2="457"/><line class="cls-6" x1="635.5" y1="434" x2="635.5" y2="457"/></g></svg>